<mxfile host="app.diagrams.net" modified="2023-09-09T21:13:29.462Z" agent="Mozilla/5.0 (Windows NT 10.0; Win64; x64) AppleWebKit/537.36 (KHTML, like Gecko) Chrome/116.0.0.0 Safari/537.36" etag="gIGMUmVDAm695X6xzdEb" version="21.7.4" type="device">
  <diagram name="Page-1" id="0ZesfyIDuIWbmdD92vio">
    <mxGraphModel dx="1035" dy="525" grid="1" gridSize="10" guides="1" tooltips="1" connect="1" arrows="1" fold="1" page="1" pageScale="1" pageWidth="850" pageHeight="1100" math="0" shadow="0">
      <root>
        <mxCell id="0" />
        <mxCell id="1" parent="0" />
        <mxCell id="d8152thZWQ4N2gOU_JTU-28" style="edgeStyle=orthogonalEdgeStyle;rounded=0;orthogonalLoop=1;jettySize=auto;html=1;exitX=0.5;exitY=1;exitDx=0;exitDy=0;entryX=0.5;entryY=0;entryDx=0;entryDy=0;" edge="1" parent="1" source="d8152thZWQ4N2gOU_JTU-1" target="d8152thZWQ4N2gOU_JTU-27">
          <mxGeometry relative="1" as="geometry" />
        </mxCell>
        <mxCell id="d8152thZWQ4N2gOU_JTU-1" value="Microcontroller" style="rounded=1;whiteSpace=wrap;html=1;fontSize=15;" vertex="1" parent="1">
          <mxGeometry x="390" y="200" width="140" height="80" as="geometry" />
        </mxCell>
        <mxCell id="d8152thZWQ4N2gOU_JTU-16" style="edgeStyle=orthogonalEdgeStyle;rounded=0;orthogonalLoop=1;jettySize=auto;html=1;exitX=1;exitY=0.5;exitDx=0;exitDy=0;entryX=0;entryY=0.5;entryDx=0;entryDy=0;" edge="1" parent="1" source="d8152thZWQ4N2gOU_JTU-2" target="d8152thZWQ4N2gOU_JTU-1">
          <mxGeometry relative="1" as="geometry" />
        </mxCell>
        <mxCell id="d8152thZWQ4N2gOU_JTU-2" value="Heart Rate &amp;amp; Oxygen Monitoring" style="ellipse;whiteSpace=wrap;html=1;fontSize=15;" vertex="1" parent="1">
          <mxGeometry x="90" y="80" width="120" height="80" as="geometry" />
        </mxCell>
        <mxCell id="d8152thZWQ4N2gOU_JTU-17" style="edgeStyle=orthogonalEdgeStyle;rounded=0;orthogonalLoop=1;jettySize=auto;html=1;exitX=1;exitY=0.5;exitDx=0;exitDy=0;entryX=0;entryY=0.5;entryDx=0;entryDy=0;" edge="1" parent="1" source="d8152thZWQ4N2gOU_JTU-3" target="d8152thZWQ4N2gOU_JTU-1">
          <mxGeometry relative="1" as="geometry" />
        </mxCell>
        <mxCell id="d8152thZWQ4N2gOU_JTU-3" value="Accelorometer" style="ellipse;whiteSpace=wrap;html=1;fontSize=15;" vertex="1" parent="1">
          <mxGeometry x="90" y="200" width="120" height="80" as="geometry" />
        </mxCell>
        <mxCell id="d8152thZWQ4N2gOU_JTU-18" style="edgeStyle=orthogonalEdgeStyle;rounded=0;orthogonalLoop=1;jettySize=auto;html=1;exitX=1;exitY=0.5;exitDx=0;exitDy=0;entryX=0;entryY=0.5;entryDx=0;entryDy=0;" edge="1" parent="1" source="d8152thZWQ4N2gOU_JTU-4" target="d8152thZWQ4N2gOU_JTU-1">
          <mxGeometry relative="1" as="geometry" />
        </mxCell>
        <mxCell id="d8152thZWQ4N2gOU_JTU-4" value="GPS Module" style="ellipse;whiteSpace=wrap;html=1;fontSize=15;" vertex="1" parent="1">
          <mxGeometry x="90" y="320" width="120" height="80" as="geometry" />
        </mxCell>
        <mxCell id="d8152thZWQ4N2gOU_JTU-19" value="Battery/Power/ Solar Energy" style="rounded=0;whiteSpace=wrap;html=1;fontSize=15;" vertex="1" parent="1">
          <mxGeometry x="400" y="40" width="120" height="80" as="geometry" />
        </mxCell>
        <mxCell id="d8152thZWQ4N2gOU_JTU-21" value="" style="endArrow=none;dashed=1;html=1;rounded=0;entryX=0.5;entryY=1;entryDx=0;entryDy=0;exitX=0.5;exitY=0;exitDx=0;exitDy=0;" edge="1" parent="1" source="d8152thZWQ4N2gOU_JTU-1" target="d8152thZWQ4N2gOU_JTU-19">
          <mxGeometry width="50" height="50" relative="1" as="geometry">
            <mxPoint x="400" y="260" as="sourcePoint" />
            <mxPoint x="450" y="210" as="targetPoint" />
          </mxGeometry>
        </mxCell>
        <mxCell id="d8152thZWQ4N2gOU_JTU-22" value="Mobile/Web &lt;br style=&quot;font-size: 15px;&quot;&gt;Application" style="shape=parallelogram;perimeter=parallelogramPerimeter;whiteSpace=wrap;html=1;fixedSize=1;fontSize=15;" vertex="1" parent="1">
          <mxGeometry x="590" y="200" width="130" height="80" as="geometry" />
        </mxCell>
        <mxCell id="d8152thZWQ4N2gOU_JTU-23" value="" style="endArrow=classic;startArrow=classic;html=1;rounded=0;entryX=0;entryY=0.5;entryDx=0;entryDy=0;exitX=1;exitY=0.5;exitDx=0;exitDy=0;" edge="1" parent="1" source="d8152thZWQ4N2gOU_JTU-1" target="d8152thZWQ4N2gOU_JTU-22">
          <mxGeometry width="50" height="50" relative="1" as="geometry">
            <mxPoint x="400" y="260" as="sourcePoint" />
            <mxPoint x="450" y="210" as="targetPoint" />
          </mxGeometry>
        </mxCell>
        <mxCell id="d8152thZWQ4N2gOU_JTU-24" value="Bluetooth &lt;br&gt;Channel" style="text;html=1;align=center;verticalAlign=middle;resizable=0;points=[];autosize=1;strokeColor=none;fillColor=none;" vertex="1" parent="1">
          <mxGeometry x="530" y="200" width="70" height="40" as="geometry" />
        </mxCell>
        <mxCell id="d8152thZWQ4N2gOU_JTU-25" value="Serial&amp;nbsp;&lt;br&gt;Communication" style="text;html=1;align=center;verticalAlign=middle;resizable=0;points=[];autosize=1;strokeColor=none;fillColor=none;" vertex="1" parent="1">
          <mxGeometry x="290" y="200" width="110" height="40" as="geometry" />
        </mxCell>
        <mxCell id="d8152thZWQ4N2gOU_JTU-27" value="LEDs/Alarm/LCD&lt;br style=&quot;font-size: 15px;&quot;&gt;Indicators" style="rounded=0;whiteSpace=wrap;html=1;fontSize=15;" vertex="1" parent="1">
          <mxGeometry x="400" y="360" width="120" height="80" as="geometry" />
        </mxCell>
      </root>
    </mxGraphModel>
  </diagram>
</mxfile>
